<?xml version="1.0" standalone="no"?>
<!DOCTYPE svg PUBLIC "-//W3C//DTD SVG 20010904//EN"
 "http://www.w3.org/TR/2001/REC-SVG-20010904/DTD/svg10.dtd">
<svg version="1.0" xmlns="http://www.w3.org/2000/svg"
 width="512.000000pt" height="512.000000pt" viewBox="0 0 512.000000 512.000000"
 preserveAspectRatio="xMidYMid meet">

<g transform="translate(0.000000,512.000000) scale(0.100000,-0.100000)"
fill="#000000" stroke="none">
<path d="M3835 3130 c-213 -46 -376 -207 -420 -415 -20 -94 -19 -147 5 -239
27 -105 63 -169 140 -247 118 -118 237 -165 403 -157 121 6 193 30 283 94 73
51 114 96 157 172 90 160 97 325 21 492 -83 181 -257 296 -463 305 -47 2 -104
0 -126 -5z m15 -346 l84 -83 92 89 c101 99 126 109 169 65 41 -40 33 -60 -65
-159 l-90 -92 76 -74 c41 -41 82 -88 90 -103 26 -48 -4 -97 -59 -97 -27 0 -46
14 -117 85 -47 47 -87 85 -91 85 -3 0 -45 -38 -92 -85 -90 -89 -112 -99 -155
-69 -15 10 -22 25 -22 47 0 27 14 46 88 120 l88 88 -88 89 c-91 93 -106 124
-75 162 35 45 66 32 167 -68z"/>
<path d="M2521 2460 c-79 -19 -131 -86 -131 -169 0 -66 23 -110 75 -143 l35
-23 0 -227 0 -228 30 0 30 0 0 -190 0 -190 185 0 185 0 0 185 0 185 -155 0
-155 0 0 230 0 231 33 19 c83 50 109 166 55 247 -16 24 -44 49 -70 62 -47 22
-63 24 -117 11z"/>
</g>
</svg>
